<svg id="color" height="512" viewBox="0 0 24 24" width="512" xmlns="http://www.w3.org/2000/svg"><path d="m18 20h-14c-1.887 0-3-1.685-3-2.75v-14.25c0-1.654 1.346-3 3-3h12c1.654 0 3 1.346 3 3v16c0 .552-.448 1-1 1zm-15-3c0 .551.449 1 1 1h13v-2h-13c-.551 0-1 .449-1 1z" fill="#cfd8dc"/><path d="m11.752 23.811-1.752-1.558-1.752 1.557c-.481.43-1.248.085-1.248-.56v-7.25h6v7.25c0 .65-.771.986-1.248.561z" fill="#90a4ae"/><path d="m21.257 10h-8.5c-.965 0-1.75-.785-1.75-1.75v-4.5c0-.965.785-1.75 1.75-1.75h.75c.078 0 .153-.037.199-.1l.901-1.2c.329-.438.852-.7 1.4-.7h2c.548 0 1.071.262 1.4.7l.899 1.2c.047.063.122.1.2.1h.75c.965 0 1.75.785 1.75 1.75v4.5c.001.965-.784 1.75-1.749 1.75z" fill="#2196f3"/><path d="m17 8c-1.379 0-2.5-1.122-2.5-2.5s1.121-2.5 2.5-2.5 2.5 1.122 2.5 2.5-1.121 2.5-2.5 2.5z" fill="#fff"/><path d="m10 0h-6c-1.654 0-3 1.346-3 3v14.25c0 1.065 1.112 2.75 3 2.75h3v-2h-3c-.551 0-1-.449-1-1s.449-1 1-1h3 3z" fill="#b4bcc0"/><path d="m10 16h-3v2 2 3.25c0 .448.369.751.756.751.171 0 .345-.059.492-.19l1.752-1.558z" fill="#7d8f97"/><path d="m17 0h-.993c-.548 0-1.071.262-1.399.699l-.902 1.201-.199.1h-.75c-.965 0-1.75.785-1.75 1.75v4.5c0 .965.785 1.75 1.75 1.75h4.243v-2c-1.379 0-2.5-1.121-2.5-2.5s1.121-2.5 2.5-2.5z" fill="#1d83d4"/><path d="m17 3c-1.379 0-2.5 1.121-2.5 2.5s1.121 2.5 2.5 2.5z" fill="#dedede"/></svg>